<svg viewBox="0 0 400 400" xmlns="http://www.w3.org/2000/svg" height="400" width="400"><path d="M275.23 182.262c-0.43 -11.582 -2.754 -13.822 -3.632 -4.686 -0.146 1.518 -0.294 3.25 -0.464 5.066 -1.39 0.418 -17.054 5.162 -17.482 6.546 -0.078 0.254 0.382 0.586 1.352 0.76 4.8 0.86 15.368 -2.424 19.972 -4.012a11.622 11.622 0 0 0 0.254 -3.674Z" fill="#1c2733" stroke-width="2"></path><path d="M321.89 192.692a148.784 148.784 0 0 0 -14.314 -7.01c-0.11 -16.174 -0.612 -26.704 2.322 -43.83a15.49 15.49 0 0 0 13.976 -4.686c5.566 -6.786 1.8 -16.924 -5.87 -16.638 -2.872 0.106 -4.052 1.352 -4 1.562 0.042 0.38 1.142 -0.186 3.462 0.084 7.312 0.856 7.936 11.084 0.972 14.484a13.728 13.728 0 0 1 -9.502 0.676l-2.4 -0.676a163.27 163.27 0 0 0 -2.936 19.762 214.36 214.36 0 0 0 0.548 31.754c9.4 2.966 14.272 5.552 18.96 6.502 1.566 0.318 2.28 0.296 2.07 0 -0.164 -0.38 -1.268 -0.914 -3.288 -1.984Z" fill="#1c2733" stroke-width="2"></path><path d="M174.86 282.59c1.048 5 2.026 7.138 1.6 7.052a20.074 20.074 0 0 1 -3.462 -7.516c-1.056 -3.462 -3.082 -9.542 0.126 -12.414 6.082 -5.446 13.174 16.426 14.484 19.55 12.252 29.26 23.048 27.262 53 26.73 58.024 -1.032 79.4 0.576 83.734 0.676 25.2 0.578 -13.366 3.032 -96.95 3.758 -10.81 0.094 -22.716 -0.678 -30.866 -8.656 -9.084 -8.894 -12.4 -22.428 -16.8 -32.472A32.566 32.566 0 0 0 176 271.95c-0.67 -0.732 -1.8 -0.262 -2.028 1.6a45.364 45.364 0 0 0 0.888 9.04Z" fill="#1c2733" stroke-width="2"></path><path d="M163.416 299.862c-1.4 0.542 -1.888 0.108 -0.928 -1.4 2.152 -3.372 9 -5.338 15.8 -1.224a21.312 21.312 0 0 1 9.036 12.92c0.3 1.774 -0.36 1.8 -1.562 0.6 -3.392 -3.386 -10.272 -15.584 -22.346 -10.896Z" fill="#1c2733" stroke-width="2"></path><path d="M158.012 310.248c-2.896 0.322 -0.4 -2.226 2.152 -3.462 3.83 -1.852 7.726 -0.572 11.36 1.562A24.49 24.49 0 0 1 179.8 315.2a8.564 8.564 0 0 1 1.436 3.378c0.126 0.886 -0.042 1.308 -0.338 1.35 -0.936 0.134 -1.912 -2.268 -7.348 -5.4a42.15 42.15 0 0 0 -9.12 -4.6 17.826 17.826 0 0 0 -6.418 0.32Z" fill="#1c2733" stroke-width="2"></path><path d="M161.642 326.844a7.8 7.8 0 0 0 -6.418 3.166c-0.892 1.306 -0.928 2.07 -1.098 1.858a4.14 4.14 0 0 1 0.888 -3.082 8.68 8.68 0 0 1 7.938 -3.504c4.052 0.314 8.496 3.328 11.738 7.98A110.6 110.6 0 0 0 186 348.6c11.912 12.326 27.618 19.838 44.17 23.478a201.172 201.172 0 0 0 59.918 3.25c28.334 -2.488 59.16 -13 77.822 -35.468 10.98 -13.216 15.628 -30.324 16.8 -47.21 0.504 -7.236 0.444 -16.292 1.308 -7.642a85.186 85.186 0 0 1 -6.164 42.014c-13.492 30.876 -48.814 46.956 -80.356 51.642 -32.682 4.858 -72.502 3.296 -101.046 -15.242 -9.038 -5.87 -15.328 -13.302 -21.62 -21.874 -1.732 -2.828 -3.182 -5.4 -4.73 -7.642 -3.06 -4.45 -7.04 -7.062 -10.46 -7.062Z" fill="#1c2733" stroke-width="2"></path><path d="M162.74 249.022a1.526 1.526 0 0 0 -2.154 -0.128c-16.146 14.28 -24.658 17.694 -26.306 18.2a221.66 221.66 0 0 1 -14.356 -37.834 293.93 293.93 0 0 1 -10.642 -64.986c-0.386 -9.628 0.292 -19.506 -3.462 -28.672 -1.142 -2.786 -2.322 -6.386 -5.87 -6.544 -5.066 -0.226 -6.668 6.63 -7.304 10.514 -0.464 2.83 -2.074 11.4 1.012 13.344 0.338 0.212 0.318 -1.984 0.466 -6.63 0.098 -3.124 1.01 -12.672 4.434 -14.062 6.16 -2.5 6.716 22.212 6.628 25.6a199.086 199.086 0 0 0 2.956 34.962c4.692 30.024 12.368 56.944 28.08 82.172 4.954 7.954 5.966 8.438 1.858 -0.126 -0.702 -1.466 -1.52 -3.126 -2.448 -5.026 2.786 -0.97 11.612 -4.814 26.982 -18.706a1.426 1.426 0 0 0 0.126 -2.078Z" fill="#1c2733" stroke-width="2"></path><path d="M57.64 111.872c-0.718 -0.254 -1.2 -0.782 -0.296 -1.646a3.574 3.574 0 0 1 2.4 -0.8c6.046 -0.112 10.518 10.278 8.022 14.822 -0.6 1.092 -1.19 0.8 -1.688 -0.212 -0.612 -1.246 -2.442 -7.554 -5.448 -10.344a6.962 6.962 0 0 0 -2.99 -1.82Z" fill="#1c2733" stroke-width="2"></path><path d="M71.11 108.748c-1.524 -1.144 0.558 -2.258 2.746 -1.732 3.6 0.864 5.762 6.29 6.164 9.966a10.212 10.212 0 0 1 -0.676 5.616c-1.912 3.21 -2.78 -6.058 -5.784 -11.4 -0.942 -1.674 -1.692 -1.692 -2.45 -2.45Z" fill="#1c2733" stroke-width="2"></path><path d="M84.328 106.466c0.294 -0.952 2.728 -1 5.108 3.632 2.712 5.284 1.912 11.32 0.254 13.302 -1.702 2.032 -1.896 -2.076 -2.534 -5.702 -1.168 -6.644 -3.236 -9.916 -2.828 -11.232Z" fill="#1c2733" stroke-width="2"></path><path d="M148.932 338.498c5.49 0 7.94 -0.464 7.728 -0.042a22.908 22.908 0 0 1 -8.614 1.774c-31.5 2.384 -57.388 -21.45 -68.954 -48.982 -12.918 -30.746 -15.55 -78.054 -12.626 -112.4 0.488 -5.748 1.816 -8.234 1.942 -7.854 0.212 0.338 -0.4 3.42 -0.296 8.91 0.558 29 -1.59 74.4 16.552 113.376 8.624 18.52 21.972 34.7 41.552 41.12a75.492 75.492 0 0 0 22.716 4.098Z" fill="#1c2733" stroke-width="2"></path><path d="M112.788 113.18a2.974 2.974 0 0 0 -3.2 -2.66l-11.824 0.718a3.036 3.036 0 0 0 -2.702 3.886c0.864 2.78 1.352 6.502 -1.224 8.486l19.762 -3.124Z" fill="#ffb306" stroke-width="2"></path><path d="m117.474 155.28 -2.66 -23.858 -7.6 1.098A85.14 85.14 0 0 1 111.4 155.828a3.054 3.054 0 1 0 6.074 -0.548Z" fill="#ffb306" stroke-width="2"></path><path d="M37.752 132.14c33.02 -5.342 28.956 -4.6 28.63 -4.772 -3.126 -0.928 -5.378 -5.102 -6.504 -7.684a2.968 2.968 0 0 0 -3.082 -1.732c-4.092 0.496 -12.672 1.146 -17.228 1.562a3.036 3.036 0 0 0 -2.746 3.336Z" fill="#ffb306" stroke-width="2"></path><path d="m38.85 142.696 2.364 22.93a3.042 3.042 0 0 0 3.462 2.66l43.156 -6.63a3.018 3.018 0 0 0 2.492 -3.546c-0.984 -5.058 -2.366 -15.244 0.21 -23.14Zm8.488 1.9 20.014 -2.87a1.55 1.55 0 0 1 1.732 1.308 1.526 1.526 0 0 1 -1.31 1.732c-16.326 2.4 -19.898 2.872 -20.226 2.872a1.528 1.528 0 0 1 -0.21 -3.038Zm34.962 13.134c-36.222 5.306 -33.55 4.812 -33.864 4.812a1.528 1.528 0 0 1 -0.212 -3.04l33.654 -4.814a1.552 1.552 0 0 1 1.732 1.31 1.526 1.526 0 0 1 -1.31 1.732Zm0 -6.758c-36.222 5.308 -33.55 4.814 -33.864 4.814a1.528 1.528 0 0 1 -0.212 -3.04l33.654 -4.814a1.552 1.552 0 0 1 1.732 1.31 1.524 1.524 0 0 1 -1.31 1.73Z" fill="#ffb306" stroke-width="2"></path><path d="M259.354 157.73c-15.556 -13.248 -12 -36.78 -14.104 -54.894a0.386 0.386 0 0 0 -0.042 -0.212c-0.55 -4.6 -1.154 -5.11 -1.69 -0.422 -2.038 17.856 -3.182 41.184 10.262 55.148 6.958 7.228 17.178 11 26.898 7.558 2.2 -0.78 3.292 -1.562 3.292 -1.858 0.15 -1.05 -13.912 3.796 -24.616 -5.32Z" fill="#1c2733" stroke-width="2"></path><path d="M282.07 123.442c0.93 -0.084 1.564 -1.4 1.436 -2.956s-0.97 -2.786 -1.9 -2.702 -1.562 1.4 -1.436 2.956 0.972 2.786 1.9 2.702Z" fill="#1c2733" stroke-width="2"></path><path d="M253.36 121.76a1.732 2.914 -4.438 1 0 3.456 -0.268 1.732 2.914 -4.438 1 0 -3.454 0.268Z" fill="#1c2733" stroke-width="2"></path><path d="M248.416 111.956c-0.928 2.702 2.2 3.63 2.914 2.83 7.906 -8.77 13.522 1.56 12.542 -1.816 -3.056 -10.522 -14.526 -3.716 -15.456 -1.014Z" fill="#1c2733" stroke-width="2"></path><path d="M275.484 112.8c-0.886 3.336 4.326 -6.904 12.582 1.478 0.756 0.766 3.844 -0.21 2.83 -2.87s-12.622 -9.12 -15.412 1.392Z" fill="#1c2733" stroke-width="2"></path><path d="M265.982 120.064s-4.05 9.922 -3.672 11.822c0.384 1.942 6.08 3.844 8.106 3.632s1.098 -3.42 0.254 -3.632 -4.814 -0.336 -5.152 -0.632c-0.338 -0.338 1.9 -9.966 0.464 -11.19Z" fill="#1c2733" stroke-width="2"></path><path d="M263.872 145.484c4.27 7.09 12.016 0.842 12.244 -1.182a1.78 1.78 0 0 0 -2.786 -1.648c-4.588 7.216 -10.808 0.59 -9.458 2.83Z" fill="#1c2733" stroke-width="2"></path><path d="M247.446 75.346s-10.852 11.19 -4.6 20.4 23.69 -17.27 23.69 -17.27c18.242 36.018 47.2 28.544 47.2 28.544 -14.136 -39.62 -66.29 -31.674 -66.29 -31.674Z" fill="#1c2733" stroke-width="2"></path><path d="M340.892 116.812s2.956 -15.454 -1.478 -21.534c0 0 22.538 -11.692 9.542 -32.558s-27.784 -19.254 -34.878 -16.298 -7.686 8.74 -7.558 13c0 0 -14.4 -8.15 -27.11 -7.348 0.042 0.006 46.99 13.526 61.482 64.738Z" fill="#1c2733" stroke-width="2"></path><path d="M319.44 82.694c-21.564 -26.57 -42.944 -30.294 -48.516 -30.066 -3.97 0.16 -9.376 7.222 -12.162 11.234a16.218 16.218 0 0 1 3.166 0.042 7.026 7.026 0 0 1 4.224 1.688c1.654 1.656 -2.294 1.974 -4.772 2.322 -3.506 0.494 -7.77 0.8 -9.542 -0.042a26.074 26.074 0 0 0 -3.548 5.744c22.296 -6.04 53.44 7.122 61.6 21.788s6.924 21.4 6.924 21.4 10.43 -0.548 11.528 12.5c0.084 17.776 -16.088 15.664 -16.088 15.664s5.742 5.2 15.16 0.086 12.624 -22.422 12.624 -22.422 0.95 -13.388 -20.598 -39.938Z" fill="#ffb306" stroke-width="2"></path><path d="M330.714 197.464c-64.182 37.708 -82.762 -7.22 -82.762 -7.22 -63.042 13.934 -79.552 42.942 -79.552 42.942 3.716 17.144 9.2 24.916 13.302 32.726 5.524 10.518 10.654 27.478 20.438 38.89 6.256 7.298 34.328 6.882 61.058 7.052s62.282 0.886 62.282 0.886l3.506 -23.816c50.544 0.6 61.016 -16.468 61.016 -16.468 -28.802 -66.21 -59.288 -74.992 -59.288 -74.992Zm43.578 66.378c-0.922 0 -2.812 -6.778 -10.978 -19.466 -18.1 -28.12 -20.218 -23.334 -29.6 -34.372 -1.26 -1.482 -1.6 -2.322 -1.35 -2.448 0.296 -0.128 1.142 0.418 2.702 1.4a89.354 89.354 0 0 1 32.134 34.07c6.6 11.718 8.108 20.816 7.092 20.816Z" fill="#ffb306" stroke-width="2"></path><path d="M70.4 88.352c0.084 1.014 -0.422 1.31 -1.436 0.844a10.622 10.622 0 0 1 -3.842 -3.926c-5.054 -7.972 -4.462 -19.676 1.056 -7.77a74.378 74.378 0 0 1 4.222 10.852Z" fill="#ffb306" stroke-width="2"></path><path d="M101.724 92.236c-1.854 0.81 -1.712 -1.886 0.886 -5.826a44.152 44.152 0 0 1 4.19 -5.278c1.93 -2.112 4.77 -4.932 4.77 -2.07 -0.008 3.992 -6.514 11.72 -9.846 13.174Z" fill="#ffb306" stroke-width="2"></path><path d="M43.58 97.98c0.38 1.774 -1.944 1.478 -5.152 -0.6s-6.166 -5.2 -6.546 -6.966 1.892 -1.506 5.152 0.6S43.2 96.2 43.58 97.98Z" fill="#ffb306" stroke-width="2"></path><path d="M26.816 128.636c2.588 2.746 -10.512 3.304 -13.218 1.14 -0.632 -0.508 -0.636 -1.102 0.128 -1.69 2.474 -1.906 10.874 -1.804 13.09 0.55Z" fill="#ffb306" stroke-width="2"></path><path d="M32.812 154.14c1.562 0.296 0.76 2.322 -1.648 4.518s-5.574 3.674 -7.178 3.42 -1.014 -2.2 1.478 -4.434c2.448 -2.196 5.786 -3.8 7.348 -3.504Z" fill="#ffb306" stroke-width="2"></path><path d="M128.284 145.948c-0.542 -1.438 1.314 -2.046 4.264 -1.266s5.876 2.658 6.378 4.054c0.512 1.432 -1.56 1.884 -4.476 1.14 -2.868 -0.734 -5.61 -2.452 -6.166 -3.928Z" fill="#ffb306" stroke-width="2"></path><path d="M126.6 118.374c-1.056 -0.97 0.2 -2.42 2.87 -3.25 2.614 -0.816 5.616 -0.676 6.672 0.294s-0.212 2.4 -2.872 3.252c-2.624 0.838 -5.62 0.676 -6.67 -0.296Z" fill="#ffb306" stroke-width="2"></path><path d="M94.42 41.778a11.988 11.988 0 0 0 -7.174 -2.178c-0.1 -1.816 -0.498 -8.6 -0.6 -10 1.83 -0.164 3.8 0.154 4.016 -0.178 0.17 -0.21 -0.422 -0.8 -2.2 -1.478a8.868 8.868 0 0 0 -1.988 -0.464c-0.644 -7.612 -1.438 -10.688 -2.446 -6.756a42.236 42.236 0 0 0 -0.912 6.95c-8.48 2.028 -9.836 13.638 -0.052 15.8 0.212 4.022 0.544 7.308 1 10.628a15.892 15.892 0 0 1 -7.676 -2.518c-1.368 -0.948 -2.068 -1.69 -2.364 -1.6 -0.8 0.116 1.632 6.252 10.548 7.514 1.43 8.672 3.114 12.146 3.47 7.9a73.506 73.506 0 0 0 0.07 -7.702c10.172 -0.41 12.374 -11.11 6.308 -15.918Zm-12.668 -3.21c-2.412 -1.322 -2.738 -5.736 1.21 -7.918a136.048 136.048 0 0 0 -0.058 8.4 5.668 5.668 0 0 1 -1.152 -0.482Zm10.176 13.85a6.97 6.97 0 0 1 -3.944 1.582 682.6 682.6 0 0 0 -0.494 -10.012 9.904 9.904 0 0 1 3.508 0.786 4.7 4.7 0 0 1 0.93 7.644Z" fill="#ffb306" stroke-width="2"></path><path d="M155.52 77.332a10.72 10.72 0 0 0 -7.136 -2.492 25.014 25.014 0 0 0 -6.384 0.584c1.18 -3.964 2.412 -10.768 0.474 -14.308 -0.49 -0.896 -0.972 -1.224 -1.224 -1.182 -0.776 0.222 0.058 2.024 -2.2 10.176 -0.984 3.552 -1.962 5.93 -2.122 6.4 -5.076 -5.03 -6.95 -3.232 -2.756 3 -0.476 0.46 -1.61 1.544 -1.708 1.64 -3.436 -2.348 -5.124 -0.62 -2.78 2.82 -7.1 7.49 -5.164 8.134 2.4 2.55 3.464 2.702 5.642 1.14 3.212 -2.488 0.474 -0.38 0.96 -0.774 1.45 -1.18 6.61 7.55 9.262 5.188 3.482 -2.54 0.318 -0.066 0.6 -0.134 0.932 -0.21a35.086 35.086 0 0 1 13.428 -1.4c1.482 0.234 2.114 -0.062 0.932 -1.37Z" fill="#ffb306" stroke-width="2"></path><path d="M40.286 65.846c-0.672 -0.384 -1.378 2.216 -5.574 4.222a11.636 11.636 0 0 1 -6.926 1.182 14.8 14.8 0 0 1 -5.55 -2.476c12.858 -9.978 5.068 -9.688 -2.85 -3.286a11.978 11.978 0 0 1 -0.862 -2.312c10.212 -6.866 12.77 -8.266 14.414 -9.788 1.14 -1.012 1.098 -1.646 -0.464 -1.6a21.854 21.854 0 0 0 -7.516 2.322 41.958 41.958 0 0 0 -7 4.25 15.212 15.212 0 0 1 4.35 -10.372c2.148 -2.218 3.898 -2.31 3.968 -2.872 0.042 -0.168 -0.126 -0.294 -0.506 -0.38 -5.052 -1.122 -13.082 6.838 -11.872 17.124a18.528 18.528 0 0 0 -3.54 4.496c-1.442 2.97 1.658 1.2 4.4 -0.612a12.122 12.122 0 0 0 1.318 2.856 10.492 10.492 0 0 0 -2.266 3.448c-0.82 2.67 2.4 0.898 4.716 -0.614a16.614 16.614 0 0 0 7.782 3.698c5.43 1.218 12.176 -2.612 13.8 -6.968 0.516 -1.39 0.388 -2.192 0.178 -2.318Z" fill="#ffb306" stroke-width="2"></path></svg>